<svg width="201" height="100" viewBox="0 0 201 100" fill="none" xmlns="http://www.w3.org/2000/svg">
<path d="M134 50C134 77.6142 104.003 100 67 100C29.9969 100 0 77.6142 0 50C0 22.3858 29.9969 0 67 0C104.003 0 134 22.3858 134 50Z" fill="#383BCA"/>
<path d="M201 50C201 77.6142 171.003 100 134 100C96.9969 100 67 77.6142 67 50C67 22.3858 96.9969 0 134 0C171.003 0 201 22.3858 201 50Z" fill="#6374F1"/>
<path d="M23.1016 64.48C21.7348 64.48 20.4216 64.3067 19.162 63.96C17.9292 63.5867 16.8036 63.0933 15.7852 62.48C14.7936 61.84 13.9762 61.1333 13.333 60.36C12.6898 59.56 12.2878 58.7067 12.127 57.8L18.5188 56C18.8136 56.7733 19.3228 57.4533 20.0464 58.04C20.7968 58.6 21.7348 58.8933 22.8604 58.92C23.9592 58.9467 24.8704 58.6933 25.594 58.16C26.3444 57.6267 26.7196 56.9333 26.7196 56.08C26.7196 55.4133 26.4516 54.8267 25.9156 54.32C25.4064 53.8133 24.6694 53.4267 23.7046 53.16L19.7248 52.16C18.3312 51.8133 17.1118 51.2667 16.0666 50.52C15.0482 49.7733 14.2442 48.8667 13.6546 47.8C13.0918 46.7067 12.8104 45.4667 12.8104 44.08C12.8104 41.3867 13.7082 39.2933 15.5038 37.8C17.2994 36.28 19.832 35.52 23.1016 35.52C24.8972 35.52 26.465 35.7733 27.805 36.28C29.145 36.76 30.284 37.48 31.222 38.44C32.1868 39.4 32.9506 40.6 33.5134 42.04L27.1618 43.92C26.9474 43.2 26.4784 42.5467 25.7548 41.96C25.058 41.3733 24.1468 41.08 23.0212 41.08C21.8956 41.08 21.0112 41.3333 20.368 41.84C19.7516 42.3467 19.4434 43.08 19.4434 44.04C19.4434 44.7067 19.698 45.2667 20.2072 45.72C20.7164 46.1467 21.4132 46.4667 22.2976 46.68L26.2774 47.68C28.5554 48.24 30.3242 49.2933 31.5838 50.84C32.8702 52.36 33.5134 54.0933 33.5134 56.04C33.5134 57.8 33.098 59.3067 32.2672 60.56C31.4632 61.8133 30.284 62.7867 28.7296 63.48C27.1752 64.1467 25.2992 64.48 23.1016 64.48Z" fill="#6374F1"/>
<path d="M48.5699 64.52C46.1579 64.52 44.0675 64.0667 42.2987 63.16C40.5567 62.2533 39.2167 60.9733 38.2787 59.32C37.3407 57.64 36.8717 55.6533 36.8717 53.36V36H43.3439V53.36C43.3439 54.4267 43.5583 55.3467 43.9871 56.12C44.4159 56.8933 45.0189 57.4933 45.7961 57.92C46.6001 58.3467 47.5515 58.56 48.6503 58.56C49.7223 58.56 50.6603 58.3467 51.4643 57.92C52.2683 57.4933 52.8847 56.8933 53.3135 56.12C53.7423 55.3467 53.9567 54.4267 53.9567 53.36V36H60.4289V53.36C60.4289 55.6533 59.9465 57.64 58.9817 59.32C58.0437 60.9733 56.6769 62.2533 54.8813 63.16C53.1125 64.0667 51.0087 64.52 48.5699 64.52Z" fill="#6374F1"/>
<path d="M65.098 64V36H74.3038C77.2786 36 79.905 36.6 82.183 37.8C84.4878 39 86.2834 40.6533 87.5698 42.76C88.8562 44.84 89.4994 47.2533 89.4994 50C89.4994 52.72 88.8562 55.1333 87.5698 57.24C86.2834 59.3467 84.4878 61 82.183 62.2C79.905 63.4 77.2786 64 74.3038 64H65.098ZM71.5702 57.92H74.3038C75.5366 57.92 76.6756 57.7333 77.7208 57.36C78.766 56.96 79.6772 56.4133 80.4544 55.72C81.2316 55 81.8346 54.16 82.2634 53.2C82.6922 52.2133 82.9066 51.1467 82.9066 50C82.9066 48.8533 82.6922 47.8 82.2634 46.84C81.8346 45.8533 81.2316 45.0133 80.4544 44.32C79.6772 43.6 78.766 43.0533 77.7208 42.68C76.6756 42.28 75.5366 42.08 74.3038 42.08H71.5702V57.92Z" fill="#383BCA"/>
<path d="M106.306 64.48C103.412 64.48 100.852 63.8667 98.628 62.64C96.4036 61.3867 94.6616 59.68 93.402 57.52C92.1424 55.3333 91.5126 52.84 91.5126 50.04C91.5126 47.2133 92.1424 44.72 93.402 42.56C94.6616 40.3733 96.3902 38.6667 98.5878 37.44C100.812 36.1867 103.358 35.56 106.226 35.56C109.093 35.56 111.626 36.1867 113.824 37.44C116.048 38.6667 117.79 40.3733 119.05 42.56C120.309 44.72 120.939 47.2133 120.939 50.04C120.939 52.84 120.309 55.3333 119.05 57.52C117.817 59.68 116.102 61.3867 113.904 62.64C111.706 63.8667 109.174 64.48 106.306 64.48ZM106.306 58.56C107.887 58.56 109.281 58.2 110.487 57.48C111.693 56.76 112.631 55.76 113.301 54.48C113.971 53.1733 114.306 51.6933 114.306 50.04C114.306 48.36 113.958 46.88 113.261 45.6C112.564 44.2933 111.613 43.28 110.407 42.56C109.201 41.8133 107.807 41.44 106.226 41.44C104.645 41.44 103.251 41.8133 102.045 42.56C100.839 43.28 99.8876 44.2933 99.1908 45.6C98.494 46.88 98.1456 48.36 98.1456 50.04C98.1456 51.6933 98.494 53.1733 99.1908 54.48C99.8876 55.76 100.852 56.76 102.085 57.48C103.318 58.2 104.725 58.56 106.306 58.56Z" fill="#383BCA"/>
<path d="M128.215 58.08L127.893 49.48L140.355 36H148.797L128.215 58.08ZM124.476 64V36H130.908V64H124.476ZM141.199 64L130.144 49.76L134.928 45.96L149.199 64H141.199Z" fill="#383BCA"/>
<path d="M171.445 64L160.913 36H167.345L178.279 64H171.445ZM149.496 64L160.43 36H166.862L156.33 64H149.496ZM154.642 58.68V53H173.174V58.68H154.642Z" fill="#383BCA"/>
<path d="M180.949 64V36H187.422V64H180.949Z" fill="#383BCA"/>
</svg>
